<svg xmlns="http://www.w3.org/2000/svg" viewBox="0 0 139 141"><defs><style>.a{fill:#fff;}</style></defs><path class="a" d="M26.9,112.4c-.1-1.1-.5-2.3-.2-3.3,2.7-9.6,5.4-19.3,8.2-28.9a7.1,7.1,0,0,1,.8-1.5L73.4,41.1l.5-.3L97,64.3l-6.9,6.9L59.7,101.4a7.2,7.2,0,0,1-2.9,1.7c-9.3,3.1-18.6,6-27.9,9-.2,0-.3.2-.4.3ZM77.4,64.6a13.8,13.8,0,0,0-2.7-2.7c-1.4-.8-2.7-.1-3.8.9L50.3,83.5c-1.8,1.7-1.8,3.6-.4,5s3.4,1.4,5.1-.3L75.7,67.6A18.7,18.7,0,0,0,77.4,64.6ZM39,83.5c-1.8,6.5-3.7,12.8-5.4,19.2a11.2,11.2,0,0,0,0,2.6l20.5-6.5Z"/><path class="a" d="M92,25.8a26,26,0,0,1,3.8,2.7L110,42.6q4.4,4.4,0,8.7l-7.9,8L78.7,35.5l11-9.7Z"/></svg>