<svg xmlns="http://www.w3.org/2000/svg" viewBox="0 0 139 141"><defs><style>.a{fill:#3181fd;}.b{fill:#fff;}</style></defs><circle class="a" cx="69" cy="70" r="65"/><path class="b" d="M36.4,102.8a7.8,7.8,0,0,1-.2-2.6c2.1-7.5,4.2-15,6.4-22.5a2.4,2.4,0,0,1,.6-1.1C53,66.8,62.8,57.1,72.5,47.3l.4-.2,18,18.3-5.4,5.3L61.8,94.3a6.1,6.1,0,0,1-2.2,1.3l-21.7,6.9-.3.3ZM75.6,65.6a13.9,13.9,0,0,0-2.1-2.1,2.4,2.4,0,0,0-2.9.7L54.5,80.3c-1.3,1.3-1.4,2.8-.3,3.9a2.7,2.7,0,0,0,4-.2L74.3,67.9A9.4,9.4,0,0,0,75.6,65.6ZM45.8,80.3,41.5,95.2a14.6,14.6,0,0,0,0,2.1l16-5.1C53.6,88.3,49.7,84.4,45.8,80.3Z"/><path class="b" d="M87,35.4a32.1,32.1,0,0,1,3,2.1l11,11c2.2,2.3,2.2,4.5,0,6.8l-6.1,6.2L76.6,43l8.6-7.6Z"/></svg>