<svg xmlns="http://www.w3.org/2000/svg" viewBox="0 0 139 141"><defs><style>.a{fill:#fff;}</style></defs><path class="a" d="M15.1,124.5c-.1-1.4-.6-2.9-.3-4.2,3.4-12.4,7-24.7,10.5-37a4.5,4.5,0,0,1,1.1-1.9L74.6,33.3a1,1,0,0,1,.5-.4L104.7,63l-8.9,8.8L57,110.5a10.5,10.5,0,0,1-3.7,2.1L17.6,124.1a.7.7,0,0,0-.5.4ZM79.7,63.4c-1.3-1.3-2.2-2.8-3.5-3.5s-3.5-.2-4.9,1.2L44.9,87.5c-2.2,2.2-2.3,4.6-.4,6.4s4.3,1.8,6.5-.4L77.4,67.2C78.3,66.3,78.7,65,79.7,63.4ZM30.5,87.5c-2.3,8.3-4.6,16.4-6.9,24.5a19.1,19.1,0,0,0,0,3.4l26.2-8.3Z"/><path class="a" d="M98.3,13.7c1.6,1.2,3.5,2.1,4.9,3.5,6.1,5.9,12.1,12,18.1,18,3.7,3.7,3.7,7.4.1,11.2L111.3,56.6c-10-10.1-19.8-20.1-30.1-30.4L95.3,13.7Z"/></svg>