<svg xmlns="http://www.w3.org/2000/svg" viewBox="0 0 139 141"><defs><style>.a{fill:#fff;}</style></defs><path class="a" d="M23.7,117.8c-.1-1.3-.6-2.6-.3-3.7,3-10.6,6-21.2,9.1-31.8a3.2,3.2,0,0,1,.9-1.6L74.8,39.3l.5-.3,25.5,25.8-7.7,7.6L59.7,105.7a8.9,8.9,0,0,1-3.1,1.9l-30.8,9.8c-.1,0-.3.2-.4.4ZM79.2,65.2c-1-1.1-1.8-2.4-3-3s-2.9-.2-4.1,1L49.3,85.9c-1.8,1.9-1.9,4-.3,5.6s3.7,1.5,5.6-.4L77.3,68.4A16.8,16.8,0,0,0,79.2,65.2ZM37,86c-2.1,7.1-4.1,14-6,21a13.9,13.9,0,0,0,0,2.9l22.5-7.1Z"/><path class="a" d="M95.2,22.5a41.5,41.5,0,0,1,4.3,3L115.1,41c3.1,3.2,3.1,6.3,0,9.5l-8.7,8.9L80.6,33.2,92.7,22.5Z"/></svg>