<svg id="Layer_1" data-name="Layer 1" xmlns="http://www.w3.org/2000/svg" viewBox="0 0 607.78 607.78"><defs><style>.cls-1{fill:#fff;}</style></defs><title>email</title><circle cx="303.89" cy="303.89" r="303.89"/><g id="_5bOmxH" data-name="5bOmxH"><path class="cls-1" d="M165.78,245V478.87c0,6.28,0,6.29-6.43,6.29-6.7,0-13.41,0-20.11,0-13.25-.15-20.74-7.41-21.38-20.68-.07-1.55,0-3.11,0-4.67q0-123.19,0-246.37c0-9.49,0-19,.85-28.46a15.79,15.79,0,0,1,11.69-14.38c8.55-2.42,16.82-3,25.09,3.16C194.08,202.41,233.1,230.56,272,258.9c16.74,12.19,33.52,24.33,50.17,36.65,2.72,2,4.59,2.07,7.36,0q75.39-55.18,150.93-110.2c5.15-3.76,10.79-7,15.39-11.36,6.75-6.38,14.63-5.6,22.38-4.41,9,1.39,14.92,8.9,15.11,18.21.24,12,.22,24,.22,36q0,119.44-.09,238.89a32.47,32.47,0,0,1-2,11.8c-2.25,5.65-6.94,9.82-13,10.19-10.66.66-21.39.18-32.86.18v-240c-8.69,6.31-16.34,11.85-24,17.4q-64,46.62-128,93.23c-7.87,5.73-7.92,5.63-14.74.65q-74-53.91-148-107.82C169.61,247.41,168.3,246.62,165.78,245Z" transform="translate(-21.11 -21.11)"/></g><rect class="cls-1" x="151.89" y="456.89" width="300" height="6" rx="3"/><rect class="cls-1" x="154.89" y="146.89" width="300" height="6" rx="3"/></svg>