<svg xmlns="http://www.w3.org/2000/svg" viewBox="0 0 139 141"><path d="M68.51,131.71a6.27,6.27,0,0,1-3.44-.9c-17.31-11.33-37-25.55-52.22-45.12C2.34,72.14-.87,58.15,3.29,44.1A38.8,38.8,0,0,1,31,17.28,39.36,39.36,0,0,1,68.76,27.59L66.42,30l2.36-2.4a.26.26,0,0,0,.2.08A39.65,39.65,0,0,1,89.75,16.6a38.51,38.51,0,0,1,35.09,11.55A39.05,39.05,0,0,1,135,64.21c-4.11,17.39-15.73,29.38-25.39,37.88C100.73,109.86,91.18,117,81.94,124L73.85,130A9.24,9.24,0,0,1,68.51,131.71ZM68.46,125a3.82,3.82,0,0,0,1.34-.32c2.67-2,5.38-4.06,8.09-6.09C87,111.71,96.48,104.63,105.12,97c8.91-7.84,19.61-18.83,23.29-34.37A32.35,32.35,0,0,0,120,32.81,31.78,31.78,0,0,0,91,23.23a32.53,32.53,0,0,0-17.15,9.16,6.8,6.8,0,0,1-4.84,2,7.17,7.17,0,0,1-5-2l0,0a32.66,32.66,0,0,0-31.32-8.56A32.11,32.11,0,0,0,9.76,46C6.2,58,9,69.65,18.18,81.56,32.66,100.23,51.69,114,68.46,125Zm-.16,0Z"/></svg>