<svg xmlns="http://www.w3.org/2000/svg" viewBox="0 0 139 141"><path d="M106.22,134.19H31c-12.13,0-22-8.38-22-18.68V58.59A17.18,17.18,0,0,1,14.76,46L52.38,11.12c8.64-8,23.79-8,32.42,0L122.43,46a17.18,17.18,0,0,1,5.78,12.63v56.92C128.21,125.81,118.34,134.19,106.22,134.19ZM68.59,12.36a15.75,15.75,0,0,0-10.69,4L20.28,51.16a10.14,10.14,0,0,0-3.46,7.43v56.92c0,6.26,6.34,11.36,14.15,11.36h75.25c7.8,0,14.15-5.1,14.15-11.36V58.59a10.12,10.12,0,0,0-3.47-7.43L79.28,16.32A15.75,15.75,0,0,0,68.59,12.36Z"/></svg>