<svg xmlns="http://www.w3.org/2000/svg" viewBox="0 0 959.63 974.53"><defs><style>.a{fill:#56564d;}.b{fill:#5656ae;}.c{fill:#207dab;}.d,.f{fill:#fff;}.e{fill:#ffdf6a;}.f{stroke:#c8dae3;stroke-miterlimit:10;opacity:0.34;}.g{fill:#596664;}.h{fill:#568aae;}.i{fill:#bdbfbf;}.j{fill:#99a196;}</style></defs><path class="a" d="M981,374.63c-16.42-16.34-35-30.3-53.75-43.84C905.31,315,883.54,299,862.56,282c-41.6-33.75-80.25-71.85-110.85-116-14.3-20.6-25.49-43-43.25-61.06a157.2,157.2,0,0,0-52.09-34.84c-41.94-17.31-91-17.69-134.94-8.88C494.24,66.68,468.29,77,443.64,89.59c-25.13,12.79-48.19,29.1-73.09,42.22s-51.92,22.12-78.41,31.76c-24.82,9-49.11,19.11-72.09,32.21-41.26,23.52-79.56,55.63-102.18,98.08-26.15,49.07-28.68,111.47-9.19,163.33,5.58,14.87,13.21,28.72,21,42.52A57.93,57.93,0,0,1,133,550.16c-.45,1.1-.95,2.19-1.49,3.26-6,12-12.32,23.81-18.4,35.75C100.56,613.8,88.58,639,81,665.69c-12.45,44-10.09,92.64,20.74,128.54,24.62,28.66,61.29,43.84,96.16,55.92,18.24,6.32,36.73,11.88,54.95,18.25A721.42,721.42,0,0,1,326.28,899c26.17,12.52,51.84,26.44,75.81,42.84,23.48,16.06,42.86,37.63,67.22,52.46,20.59,12.54,44.63,20.57,67.77,26.94A255.53,255.53,0,0,0,599,1030c83.88,1.93,173.81-34.11,220.2-106.64,30-47,41.4-103.06,58-155.53,8.13-25.73,17.43-51.31,31.47-74.47,14.46-23.87,33.61-43.07,54-61.81,19.37-17.76,38.59-35.64,51.1-59.09a171.31,171.31,0,0,0,19.56-70.24C1036.18,453.54,1015,408.53,981,374.63Z" transform="translate(-73.98 -55.56)"/><path class="b" d="M593.73,496.87s72.52-34.09,122.29-.79,75.34,94.28,53.76,142.86S686.92,762.52,542.62,783,337.5,727.31,337.5,727.31s-30.07-23.06-42.23-107.82a91.26,91.26,0,0,1,6.6-49.36h0l5.05,7.66A33.24,33.24,0,0,0,327,591.91c12.25,2.86,31.89,3.89,57.24-6.61C429,566.78,504.9,528.11,504.9,528.11Z" transform="translate(-73.98 -55.56)"/><path class="c" d="M685.66,388.18" transform="translate(-73.98 -55.56)"/><circle class="d" cx="440.87" cy="397.16" r="94"/><path class="e" d="M574,458.67s-1.5-32.09,8-37S606.18,416,622.54,428s46.52-5,55.36-10.76,39,3.38,9.16,40.63-53.13,39-77.67,39.82-52.47-4.89-51.37-15.53Z" transform="translate(-73.98 -55.56)"/><path class="d" d="M723.3,444.34" transform="translate(-73.98 -55.56)"/><ellipse class="f" cx="451.61" cy="366.28" rx="197.71" ry="191.5"/><ellipse class="g" cx="453.92" cy="381.31" rx="10.08" ry="13.26"/><rect class="h" x="591.53" y="641.74" width="93.04" height="48.77" transform="translate(-271.69 220.26) rotate(-21.2)"/><circle class="d" cx="535.8" cy="621.52" r="3.89"/><circle class="d" cx="564.08" cy="610.56" r="3.89"/><circle class="d" cx="588.05" cy="602.51" r="3.89"/><path class="d" d="M680.05,338.12a109,109,0,0,0-46.39-48.91c-9-4.92-17.14,8.89-8.07,13.81a94.73,94.73,0,0,1,40.65,43.17C670.63,355.5,684.43,347.39,680.05,338.12Z" transform="translate(-73.98 -55.56)"/><path class="d" d="M687.12,370.77c-10.3,0-10.32,16,0,16S697.43,370.77,687.12,370.77Z" transform="translate(-73.98 -55.56)"/><path class="d" d="M526.13,425.8c-5.8,0-5.8,9,0,9S531.93,425.8,526.13,425.8Z" transform="translate(-73.98 -55.56)"/><polygon class="d" points="215.28 207.38 225.2 225.53 243.35 235.45 225.2 245.38 215.28 263.53 205.35 245.38 187.2 235.45 205.35 225.53 215.28 207.38"/><polygon class="d" points="677.79 604.57 687.72 622.72 705.87 632.65 687.72 642.58 677.79 660.73 667.87 642.58 649.72 632.65 667.87 622.72 677.79 604.57"/><polygon class="d" points="208.58 669.89 218.5 688.04 236.65 697.97 218.5 707.9 208.58 726.05 198.65 707.9 180.5 697.97 198.65 688.04 208.58 669.89"/><polygon class="d" points="610.8 147.32 620.73 165.47 638.87 175.4 620.73 185.33 610.8 203.48 600.87 185.33 582.72 175.4 600.87 165.47 610.8 147.32"/><polygon class="d" points="202.88 294.65 181.09 299.67 177.08 321.67 172.06 299.88 150.07 295.87 171.85 290.85 175.86 268.85 180.88 290.64 202.88 294.65"/><polygon class="d" points="336.87 483.92 315.08 488.94 311.07 510.93 306.05 489.14 284.06 485.13 305.84 480.11 309.86 458.12 314.88 479.9 336.87 483.92"/><polygon class="d" points="668.29 702.67 646.51 707.69 642.5 729.68 637.47 707.9 615.48 703.88 637.26 698.86 641.28 676.87 646.3 698.65 668.29 702.67"/><polygon class="d" points="454.92 756.47 433.14 761.49 429.12 783.49 424.1 761.7 402.11 757.69 423.89 752.67 427.91 730.68 432.93 752.46 454.92 756.47"/><polygon class="d" points="724.79 407.08 703 412.1 698.99 434.09 693.97 412.31 671.98 408.29 693.76 403.27 697.77 381.28 702.79 403.06 724.79 407.08"/><circle class="i" cx="789.89" cy="215.48" r="72.02"/><circle class="j" cx="748.89" cy="181.86" r="7.72"/><circle class="j" cx="770.59" cy="183.02" r="5.28"/><circle class="j" cx="806.09" cy="222.53" r="5.28"/><circle class="j" cx="836.03" cy="211.65" r="7.72"/><circle class="j" cx="813.6" cy="256.53" r="7.72"/><circle class="j" cx="756.65" cy="238.88" r="18.75"/><circle class="j" cx="826.14" cy="191.45" r="18.75"/></svg>