<svg xmlns="http://www.w3.org/2000/svg" viewBox="0 0 959.6 974.5"><defs><style>.a{fill:#5b5b54;}.b{fill:#6398e5;}.c{fill:#207dab;}.d,.f{fill:#fff;}.e{fill:#ffdf6a;}.f{stroke:#c8dae3;stroke-miterlimit:10;opacity:0.34;}.g{fill:#596664;}.h{fill:#3181aa;}.i{fill:#bdbfbf;}.j{fill:#99a196;}</style></defs><path class="a" d="M981,374.6c-16.5-16.3-35.1-30.3-53.8-43.8C905.3,315,883.5,299,862.6,282c-41.6-33.8-80.3-71.9-110.9-116-14.3-20.6-25.5-43-43.2-61a158.1,158.1,0,0,0-52.1-34.9c-42-17.3-91-17.7-135-8.9-27.2,5.5-53.1,15.8-77.8,28.4s-48.1,29.1-73.1,42.2-51.9,22.1-78.4,31.8c-24.8,9-49.1,19.1-72,32.2-41.3,23.5-79.6,55.6-102.2,98.1-26.2,49-28.7,111.4-9.2,163.3,5.6,14.9,13.2,28.7,20.9,42.5a57.9,57.9,0,0,1,3.4,50.5l-1.5,3.2c-6.1,12-12.3,23.8-18.4,35.8C100.6,613.8,88.6,639,81,665.7c-12.4,44-10.1,92.6,20.8,128.5,24.6,28.7,61.3,43.9,96.1,55.9,18.3,6.4,36.8,11.9,55,18.3A701.4,701.4,0,0,1,326.3,899c26.2,12.5,51.8,26.4,75.8,42.8s42.9,37.6,67.2,52.5c20.6,12.5,44.6,20.5,67.8,26.9A258.3,258.3,0,0,0,599,1030c83.9,2,173.8-34.1,220.2-106.6,30.1-47,41.4-103.1,58-155.6,8.1-25.7,17.4-51.3,31.5-74.4s33.6-43.1,54-61.8,38.6-35.7,51.1-59.1a172.9,172.9,0,0,0,19.6-70.3C1036.2,453.5,1015,408.5,981,374.6Z" transform="translate(-74 -55.6)"/><path class="b" d="M593.7,496.9s72.5-34.1,122.3-.8,75.4,94.3,53.8,142.8S686.9,762.5,542.6,783s-205.1-55.7-205.1-55.7-30.1-23.1-42.2-107.8a90.9,90.9,0,0,1,6.6-49.4h0l5,7.7A33.2,33.2,0,0,0,327,591.9c12.3,2.9,31.9,3.9,57.3-6.6,44.7-18.5,120.6-57.2,120.6-57.2Z" transform="translate(-74 -55.6)"/><path class="c" d="M685.7,388.2" transform="translate(-74 -55.6)"/><circle class="d" cx="440.9" cy="397.2" r="94"/><path class="e" d="M573.9,458.7s-1.4-32.1,8-37.1,24.3-5.6,40.6,6.4,46.6-5,55.4-10.7,39,3.3,9.2,40.6-53.2,39-77.7,39.8-52.5-4.9-51.4-15.5Z" transform="translate(-74 -55.6)"/><path class="d" d="M723.3,444.3" transform="translate(-74 -55.6)"/><ellipse class="f" cx="451.6" cy="366.3" rx="197.7" ry="191.5"/><ellipse class="g" cx="453.9" cy="381.3" rx="10.1" ry="13.3"/><rect class="h" x="591.5" y="641.7" width="93" height="48.77" transform="translate(-271.7 220.3) rotate(-21.2)"/><circle class="d" cx="535.8" cy="621.5" r="3.9"/><circle class="d" cx="564.1" cy="610.6" r="3.9"/><circle class="d" cx="588" cy="602.5" r="3.9"/><path class="d" d="M680.1,338.1a109.2,109.2,0,0,0-46.4-48.9c-9.1-4.9-17.2,8.9-8.1,13.8a94.4,94.4,0,0,1,40.6,43.2C670.6,355.5,684.4,347.4,680.1,338.1Z" transform="translate(-74 -55.6)"/><path class="d" d="M687.1,370.8c-10.3,0-10.3,16,0,16S697.4,370.8,687.1,370.8Z" transform="translate(-74 -55.6)"/><path class="d" d="M526.1,425.8c-5.8,0-5.8,9,0,9S531.9,425.8,526.1,425.8Z" transform="translate(-74 -55.6)"/><polygon class="d" points="215.3 207.4 225.2 225.5 243.4 235.5 225.2 245.4 215.3 263.5 205.3 245.4 187.2 235.5 205.3 225.5 215.3 207.4"/><polygon class="d" points="677.8 604.6 687.7 622.7 705.9 632.6 687.7 642.6 677.8 660.7 667.9 642.6 649.7 632.6 667.9 622.7 677.8 604.6"/><polygon class="d" points="208.6 669.9 218.5 688 236.7 698 218.5 707.9 208.6 726 198.7 707.9 180.5 698 198.7 688 208.6 669.9"/><polygon class="d" points="610.8 147.3 620.7 165.5 638.9 175.4 620.7 185.3 610.8 203.5 600.9 185.3 582.7 175.4 600.9 165.5 610.8 147.3"/><polygon class="d" points="202.9 294.7 181.1 299.7 177.1 321.7 172.1 299.9 150.1 295.9 171.9 290.8 175.9 268.9 180.9 290.6 202.9 294.7"/><polygon class="d" points="336.9 483.9 315.1 488.9 311.1 510.9 306.1 489.1 284.1 485.1 305.8 480.1 309.9 458.1 314.9 479.9 336.9 483.9"/><polygon class="d" points="668.3 702.7 646.5 707.7 642.5 729.7 637.5 707.9 615.5 703.9 637.3 698.9 641.3 676.9 646.3 698.7 668.3 702.7"/><polygon class="d" points="454.9 756.5 433.1 761.5 429.1 783.5 424.1 761.7 402.1 757.7 423.9 752.7 427.9 730.7 432.9 752.5 454.9 756.5"/><polygon class="d" points="724.8 407.1 703 412.1 699 434.1 694 412.3 672 408.3 693.8 403.3 697.8 381.3 702.8 403.1 724.8 407.1"/><circle class="i" cx="789.9" cy="215.5" r="72"/><circle class="j" cx="748.9" cy="181.9" r="7.7"/><circle class="j" cx="770.6" cy="183" r="5.3"/><circle class="j" cx="806.1" cy="222.5" r="5.3"/><circle class="j" cx="836" cy="211.6" r="7.7"/><circle class="j" cx="813.6" cy="256.5" r="7.7"/><circle class="j" cx="756.7" cy="238.9" r="18.8"/><circle class="j" cx="826.1" cy="191.5" r="18.8"/></svg>