<svg xmlns="http://www.w3.org/2000/svg" viewBox="0 0 139 141"><path d="M133.59,122.82H5.27a2.36,2.36,0,0,1-2.36-2.35V22.73a2.36,2.36,0,0,1,2.36-2.35H133.59a2.35,2.35,0,0,1,2.35,2.35v97.74A2.35,2.35,0,0,1,133.59,122.82ZM7.53,118.21h123.8V25H7.53Z"/><path d="M62.2,86.26a31.07,31.07,0,0,1-8,2.88,40.52,40.52,0,0,1-8.47.88,24.1,24.1,0,0,1-8.47-1.44,19.31,19.31,0,0,1-6.7-4.12A18.71,18.71,0,0,1,26.18,78a23.93,23.93,0,0,1,0-17.05,18.71,18.71,0,0,1,4.41-6.51,19.33,19.33,0,0,1,6.7-4.13,24.1,24.1,0,0,1,8.47-1.44A31.18,31.18,0,0,1,54.42,50a17,17,0,0,1,6.95,3.9l-6.09,6.65a12.18,12.18,0,0,0-4-2.77,14.21,14.21,0,0,0-5.54-.94,12.75,12.75,0,0,0-5,.94,11.18,11.18,0,0,0-3.85,2.63,11.71,11.71,0,0,0-2.47,4,15.46,15.46,0,0,0,0,10.11,11.82,11.82,0,0,0,2.47,4,11.32,11.32,0,0,0,3.85,2.63,12.75,12.75,0,0,0,5,.94,16.29,16.29,0,0,0,4.87-.64,18.13,18.13,0,0,0,3.27-1.3V73.74h-7v-8H62.2Z"/><path d="M69.68,49.82h8.64V89H69.68Z"/><path d="M86.51,49.82h26.31v8H95.15v8h16.34v8H95.15V89H86.51Z"/></svg>