<svg xmlns="http://www.w3.org/2000/svg" viewBox="0 0 139 141"><path d="M71.5,125.43A55.93,55.93,0,1,1,127.43,69.5,56,56,0,0,1,71.5,125.43Zm0-104.86A48.93,48.93,0,1,0,120.43,69.5,49,49,0,0,0,71.5,20.57Z"/><circle cx="52.16" cy="59.61" r="6.02"/><circle cx="89.98" cy="59.61" r="6.02"/><path d="M70.67,95C57.77,95,47.73,85.88,43.26,81a3.5,3.5,0,0,1,.48-5.2h0a3.5,3.5,0,0,1,4.64.43c3.83,4.15,12.71,12.25,23.36,11.69s18.52-7.77,22-11.62a3.5,3.5,0,0,1,4.61-.5h0a3.49,3.49,0,0,1,.58,5.2C94.7,85.7,85.25,94.22,72.11,94.91,71.63,94.94,71.15,95,70.67,95Z"/></svg>