<svg xmlns="http://www.w3.org/2000/svg" viewBox="0 0 139 141"><defs><style>.a{fill:#3181fd;}</style></defs><path class="a" d="M36.1,64.6c-2.8-.7-4.7-1.6-6.7-1.6-5.6,0-10.4-1.8-13.6-6.7-1.9-3-2.1-5.9,1.9-7.8s6.4-4.6,6.8-10.1c1.4-18.8,16-31.8,34.6-32.2S92.5,18.1,95.3,36.4c1.4,8.8-1.2,16.7-6.3,23.9-1.1,1.6-2.3,3-4,5.2,9.7-.5,17.7-2.6,23.1-11,13,8.6,21.7,19.7,23.1,35.8,1.8,22.2-10.3,33.9-24,39.7-23.5,9.9-47.3,11.1-70.4-1-11.4-6-19.6-14.9-20.3-28.6C16,91,20.4,83.2,25.9,76,28.7,72.4,31.9,69.2,36.1,64.6Z"/></svg>