<svg xmlns="http://www.w3.org/2000/svg" viewBox="0 0 139 141"><path d="M71.33,53.29A23.1,23.1,0,1,1,48.21,76.36,23.12,23.12,0,0,1,71.33,53.29ZM87.84,76.54A16.53,16.53,0,1,0,71.18,92.91,16.55,16.55,0,0,0,87.84,76.54Z"/><path d="M36.21,115.14A15.18,15.18,0,0,1,33.46,113a2.72,2.72,0,0,1,.09-3.31,7.65,7.65,0,0,1,1-1.09c4.39-4.41,8.76-8.85,13.23-13.18a4.76,4.76,0,0,1,3-1.44,4.48,4.48,0,0,1,2.73,1.84,2.67,2.67,0,0,1-.43,3.41c-.81.93-1.71,1.77-2.59,2.65-3.79,3.8-7.56,7.61-11.4,11.37A20.68,20.68,0,0,1,36.21,115.14Z"/><path d="M109.92,111.76a12.63,12.63,0,0,1-2.07,2.5,2.74,2.74,0,0,1-3.44-.26,19.66,19.66,0,0,1-1.75-1.67L89.91,99.58c-1-1-1.62-2.23-.89-3.48A4.46,4.46,0,0,1,91.54,94a4.21,4.21,0,0,1,3.1,1.14c4.64,4.46,9.16,9.06,13.71,13.62a3.62,3.62,0,0,1,.71.86C109.35,110.19,109.54,110.79,109.92,111.76Z"/><path d="M50.1,58.88a7.84,7.84,0,0,1-2-1.18q-7-6.89-13.94-13.91A3.21,3.21,0,0,1,33.91,39a3.31,3.31,0,0,1,4.88.17q7,6.91,13.93,13.91A3.22,3.22,0,0,1,53.56,57C53,58.19,52,58.82,50.1,58.88Z"/><path d="M92.5,58.87c-3,0-4.53-2.67-3.29-4.83a6.73,6.73,0,0,1,1-1.23q6.66-6.66,13.33-13.31a4.79,4.79,0,0,1,1.82-1.26,3.06,3.06,0,0,1,3.68,1.23,3,3,0,0,1-.3,4Q101.54,50.81,94.2,58A5.06,5.06,0,0,1,92.5,58.87Z"/><path d="M68.06,115.65c0-3.17,0-6.34,0-9.5,0-2.33,1.29-3.75,3.29-3.72s3.19,1.39,3.19,3.65q0,9.74,0,19.48c0,2.25-1.26,3.63-3.2,3.65s-3.27-1.42-3.28-3.74C68.05,122.2,68.06,118.92,68.06,115.65Z"/><path d="M31.75,79.63c-3.12,0-6.24,0-9.36,0-2.46,0-4-1.31-3.93-3.3s1.56-3.24,4-3.24q9.6,0,19.2,0A3.25,3.25,0,0,1,45,75.14a2.85,2.85,0,0,1-.78,3.52,5.37,5.37,0,0,1-2.8.92C38.21,79.7,35,79.63,31.75,79.63Z"/><path d="M110.69,79.62c-3.29,0-6.57,0-9.85,0a3.15,3.15,0,0,1-3.42-2.92,3.21,3.21,0,0,1,3.43-3.59q9.91,0,19.85,0a3.31,3.31,0,0,1,3.48,3.27,3.26,3.26,0,0,1-3.49,3.25C117.36,79.66,114,79.62,110.69,79.62Z"/><path d="M74.56,37c0,3.23,0,6.46,0,9.68,0,2.2-1.34,3.65-3.24,3.64s-3.24-1.49-3.24-3.65q0-9.77,0-19.53c0-2.23,1.28-3.6,3.25-3.6s3.22,1.37,3.23,3.61C74.58,30.44,74.56,33.72,74.56,37Z"/></svg>