<svg xmlns="http://www.w3.org/2000/svg" viewBox="0 0 139 141"><circle cx="73.92" cy="62.95" r="5.63"/><path d="M127.54,61.57c0-23.26-19.71-42.18-43.93-42.18S39.69,38.31,39.69,61.57a40.3,40.3,0,0,0,.91,8.56C31.81,75.81,21.83,77.81,11,77.47a7.48,7.48,0,0,0-3.36,1A3.42,3.42,0,0,0,6,82.7a10.49,10.49,0,0,0,1.36,2.67c4.87,6.45,12,9.7,19.47,11.25l11,1.63c-6.26,3.59-13.34,8.88-13.56,14.52-.09,2.24.8,5.43,5.49,7.94a17.4,17.4,0,0,0,8.24,1.77c17.38,0,44.1-16.57,47.57-18.78h0C108.85,102.74,127.54,84.22,127.54,61.57ZM32.78,114.91c-1.27-.67-2-1.39-2-1.88.09-2.23,8.57-8.63,17.89-13.17L73,103.45C58.63,111.27,40.1,118.82,32.78,114.91Zm55.74-18a8.21,8.21,0,0,0,.2-1.8c0-4.67-3.9-9.33-8.19-8.22-10,2.58-14.07-2.92-18.05-10.49-2.11-4-5.94-7.16-9.28-10.4a4.73,4.73,0,0,0-6.69-.3,34.37,34.37,0,0,1-.26-4.08C46.25,41.93,63,26,83.61,26S121,41.93,121,61.57C121,79.62,106.81,94.56,88.52,96.86Z"/></svg>